<svg width="31" height="57" viewBox="0 0 31 57" fill="none" xmlns="http://www.w3.org/2000/svg">
<path d="M27.9749 14.136C28.7028 14.5034 29.3127 15.0569 29.7383 15.7361C30.164 16.4153 30.3891 17.1943 30.3892 17.9886V32.9532L8.03266 21.6528C5.61039 20.4269 3.58129 18.5829 2.1653 16.3209C0.749305 14.0588 0.000482349 11.465 0 8.82059V0L27.9749 14.136Z" fill="#907CFE"/>
<path d="M4.16908e-06 57L27.9857 42.864C28.7136 42.4965 29.3235 41.9431 29.7492 41.2639C30.1748 40.5847 30.3999 39.8057 30.4 39.0114V32.9427L21.6578 28.5272L21.5842 28.4895L8.04349 35.3283C5.61627 36.5543 3.58303 38.4006 2.16488 40.6664C0.746723 42.9322 -0.00203871 45.5307 4.16908e-06 48.1794V57Z" fill="#654DE4"/>
</svg>
