<svg width="39" height="72" viewBox="0 0 39 72" fill="none" xmlns="http://www.w3.org/2000/svg">
<path d="M35.3367 17.8559C36.2561 18.3201 37.0265 19.0192 37.5642 19.8771C38.1018 20.7351 38.3862 21.7191 38.3863 22.7224V41.6251L10.1465 27.3509C7.0868 25.8024 4.52373 23.4732 2.73511 20.6159C0.946491 17.7585 0.000609283 14.4821 0 11.1418V0L35.3367 17.8559Z" fill="#7964E8"/>
<path d="M5.26621e-06 72L35.3503 54.1441C36.2698 53.6799 37.0402 52.9808 37.5779 52.1229C38.1155 51.2649 38.3999 50.2809 38.4 49.2776V41.6119L27.3572 36.0343L27.2642 35.9868L10.1602 44.6253C7.09424 46.1739 4.52593 48.5061 2.73458 51.3681C0.94323 54.2302 -0.00257521 57.5125 5.26621e-06 60.8582V72Z" fill="#7964E8"/>
</svg>
