<svg width="549" height="134" viewBox="0 0 549 134" fill="none" xmlns="http://www.w3.org/2000/svg">
<path d="M525.629 75.8606C528.524 75.8606 529.181 75.0187 529.181 73.8033C529.181 69.3019 509.553 72.777 509.553 54.9195C509.553 44.1701 516.189 38.0032 528.992 38.0032C534.319 38.0032 539.738 38.9349 543.757 41.0865C546.187 44.6383 547.592 51.2779 546.749 55.9416C542.357 53.5107 536.187 51.7327 531.795 51.7327C529.546 51.7327 529.094 52.3898 529.094 53.3215C529.094 57.8231 549 54.537 549 71.6472C549 85.1066 540.494 89.6891 526.759 89.6891C521.71 89.6891 516.102 89.1263 511.526 87.3483C508.721 83.2384 507.786 75.6669 508.721 71.6472C513.105 74.0868 519.738 75.8606 525.629 75.8606Z" fill="#070B10"/>
<path d="M503.16 72.3584C495.082 74.4651 493.564 75.1987 487.031 75.1987C479.379 75.1987 476.377 73.9832 475.536 69.6845H501.613C502.598 66.5373 503.102 63.259 503.105 59.9613C503.105 46.6864 496.377 37.994 480.955 37.994C465.909 37.994 455.536 48.4599 455.536 64.4493C455.536 79.9657 464.88 87.9424 481.702 89.6891C487.895 90.3281 501.085 89.7204 505.879 85.1875C504.006 81.5232 503.097 76.4457 503.16 72.3584ZM480.564 51.2014C484.583 51.2014 486.17 53.9022 485.424 57.5575H474.861C475.069 53.2406 477.22 51.2014 480.564 51.2014Z" fill="#070B10"/>
<path d="M428.527 20.7985C433.108 18.3722 439.557 17.0623 448.157 17.0623V85.9347C444.601 87.8028 439.09 88.8336 433.576 88.8336L431.06 81.0957H429.941C428.535 84.8364 424.054 89.698 415.538 89.698C407.024 89.698 397.408 84.8364 397.408 66.6054C397.408 48.7526 406.381 38.0032 420.584 38.0032C423.67 38.0032 426.284 38.3768 428.527 39.592V20.7985ZM428.716 54.9195C427.634 54.4129 426.452 54.1575 425.26 54.1723C420.211 54.1723 417.608 57.9132 417.608 64.2693C417.608 70.4406 420.038 72.9614 423.589 72.9614C424.545 72.9604 425.491 72.7701 426.373 72.4015C427.256 72.0331 428.057 71.4937 428.73 70.8143L428.716 54.9195Z" fill="#070B10"/>
<path d="M394.156 63.0538C394.156 80.4431 384.442 89.698 368.833 89.698C352.384 89.698 343.411 80.911 343.411 63.0538C343.411 47.2581 353.974 38.0032 368.833 38.0032C384.229 38.0032 394.156 46.7001 394.156 63.0538ZM368.833 74.6451C372.758 74.6451 374.066 70.5308 374.066 63.2427C374.066 56.9768 372.267 53.0517 368.833 53.0517C365.187 53.0517 363.506 56.8867 363.506 63.2427C363.483 70.4407 365.261 74.6451 368.81 74.6451H368.833Z" fill="#070B10"/>
<path d="M320.986 38.0032C328.431 38.093 335.683 40.3658 341.848 44.5392L341.917 44.6294C339.584 48.1664 338.066 52.1778 337.47 56.3735C334.396 54.9421 329.46 53.8932 325.539 53.8932C318.717 53.8932 314.325 56.3241 314.325 63.522C314.325 70.7197 318.995 73.3395 325.82 73.3395C329.918 73.2591 333.96 72.3737 337.716 70.7333C338.581 75.757 340.262 79.9434 342.718 83.2923C342.749 83.378 342.786 83.4904 342.786 83.4904C336.555 90.3462 322.229 89.7206 318.717 89.698C303.017 89.5856 294.324 80.0695 294.324 64.7372C294.324 47.1817 305.446 38.0032 320.774 38.0032H320.986Z" fill="#070B10"/>
<path d="M257.504 86.7989C255.637 87.7353 252.365 88.2934 247.689 88.2934C243.013 88.2934 239.746 87.7353 237.878 86.7989V20.7985C242.455 18.3722 248.904 17.0623 257.504 17.0623V29.4009C257.526 35.1511 256.923 40.8868 255.704 46.5064H256.829C259.633 40.8075 264.397 38.0032 272.152 38.0032C278.882 38.0032 287.387 40.3393 287.387 56.135V86.7989C285.519 87.7353 282.246 88.2934 277.576 88.2934C272.906 88.2934 269.633 87.7353 267.76 86.7989V60.0648C267.76 56.8867 266.735 55.1132 263.741 55.1132C260.938 55.1132 258.791 57.0759 257.482 59.5065L257.504 86.7989Z" fill="#070B10"/>
<path d="M232.82 85.9797C223.472 89.7206 217.226 89.698 212.087 89.698C196.385 89.698 187.69 80.0695 187.69 64.7372C187.69 47.1817 198.815 38.0032 214.139 38.0032C218.639 38.0032 226.123 39.7092 232.972 44.3816V58.4038C227.68 54.9781 223.112 53.9024 218.909 53.9024C212.086 53.9024 207.694 56.3331 207.694 63.531C207.694 70.7289 212.366 73.3487 219.188 73.3487C223.112 73.3487 229.174 71.2825 232.82 69.788V85.9797Z" fill="#070B10"/>
<path d="M184.216 71.6516C180.476 73.2092 172.515 75.2076 166.012 75.2076C158.362 75.2076 155.355 73.9924 154.518 69.6934H180.589C181.576 66.5465 182.081 63.2685 182.087 59.9703C182.087 46.6953 175.359 38.0032 159.937 38.0032C144.892 38.0032 134.514 48.4691 134.514 64.4582C134.514 79.9749 143.924 87.4158 160.684 89.698C167.709 90.6568 181.106 89.7206 188.271 83.1754L188.154 82.8377C186.07 79.7586 184.742 75.9911 184.216 71.6516ZM159.563 51.2014C163.582 51.2014 165.17 53.9024 164.423 57.5575H153.861C154.05 53.2406 156.197 51.2014 159.563 51.2014Z" fill="#070B10"/>
<path d="M131.337 71.2016C128.944 72.3235 126.329 72.8942 123.686 72.8716C119.384 72.8716 118.079 71.1879 118.079 66.7945V55.3877H129.01C129.757 53.8932 130.131 50.6207 130.131 47.6317C130.131 44.5437 129.757 41.3658 129.01 39.8713H118.079V25.0929C110.599 25.0929 103.403 26.8665 98.4483 29.9545V39.8576H93.5924C92.0038 43.972 90.9733 50.328 90.9733 55.3743H98.4483V70.2291C98.4483 80.6995 101.283 88.7753 115.649 89.6754C124.825 90.2472 132.075 88.1765 137.358 85.1066C134.001 81.5863 131.953 76.8598 131.337 71.2016Z" fill="#070B10"/>
<path d="M60.8208 35.6624C62.3352 36.4527 63.6037 37.6432 64.4892 39.1043C65.3746 40.5652 65.843 42.241 65.8433 43.9496V76.1396L19.3366 51.8317C14.2977 49.1945 10.0767 45.2281 7.13113 40.3624C4.18554 35.4963 2.62783 29.9169 2.62683 24.2286V5.2549L60.8208 35.6624Z" fill="#907CFE"/>
<path d="M2.62684 127.866L60.8434 97.4585C62.3575 96.6681 63.6263 95.4776 64.5117 94.0165C65.3972 92.5556 65.8653 90.8799 65.8656 89.1712V76.117L47.6798 66.619L47.5269 66.5378L19.3591 81.2487C14.3099 83.8858 10.0803 87.8575 7.13027 92.7312C4.18019 97.6051 2.6226 103.195 2.62684 108.892V127.866Z" fill="#654DE4"/>
</svg>
