<?xml version="1.0" standalone="no"?>
<!DOCTYPE svg PUBLIC "-//W3C//DTD SVG 20010904//EN"
 "http://www.w3.org/TR/2001/REC-SVG-20010904/DTD/svg10.dtd">
<svg version="1.0" xmlns="http://www.w3.org/2000/svg"
 width="792.000000pt" height="792.000000pt" viewBox="0 0 792.000000 792.000000"
 preserveAspectRatio="xMidYMid meet">
<metadata>
Created by potrace 1.14, written by Peter Selinger 2001-2017
</metadata>
<g transform="translate(0.000000,792.000000) scale(0.100000,-0.100000)"
fill="#000000" stroke="none">
<path d="M0 3960 l0 -3960 3960 0 3960 0 0 3960 0 3960 -3960 0 -3960 0 0
-3960z m3024 1944 c49 -26 479 -251 955 -501 944 -495 925 -483 984 -603 l32
-65 0 -775 0 -775 -33 -67 c-21 -42 -50 -83 -80 -109 -33 -29 -335 -192 -992
-536 -520 -273 -951 -498 -958 -501 -11 -4 -13 76 -9 444 3 417 5 455 24 529
67 253 222 474 428 610 44 29 230 130 413 226 182 95 332 176 332 180 0 3
-154 86 -342 185 -394 206 -429 227 -528 320 -168 159 -276 358 -315 583 -12
64 -15 178 -15 492 0 225 3 409 7 409 4 0 47 -21 97 -46z"/>
<path d="M3133 5338 c5 -309 9 -334 83 -483 54 -110 139 -215 230 -283 41 -31
325 -186 703 -384 348 -183 638 -335 643 -337 5 -2 8 163 6 415 l-3 419 -23
38 c-13 20 -42 48 -65 61 -37 21 -1419 746 -1535 805 l-44 22 5 -273z"/>
<path d="M3935 3624 c-225 -118 -437 -235 -471 -259 -116 -83 -220 -219 -278
-361 -47 -116 -57 -197 -54 -456 l3 -237 785 412 c432 227 795 419 807 427 11
9 32 33 45 55 22 38 23 49 23 223 l0 184 -215 113 c-118 63 -219 114 -225 114
-5 0 -194 -97 -420 -215z"/>
</g>
</svg>
